# xmcd
#
# Track frame offsets: 
#        150
#        13212
#        30615
#        47635
#        68217
#        89493
#        115154
#        131096
#        153316
#        172200
#        193719
#        220297
#
# Disc length: 3193 seconds
#
# Revision: 3
# Processed by: cddbd v1.5.2PL0 Copyright (c) Steve Scherf et al.
# Submitted via: ExactAudioCopy v0.99pb4
#
DISCID=ae0c770c
DTITLE=Various Artist - Body And Soul - Wedding Songs Disc 2
DYEAR=2003
DGENRE=Soul
TTITLE0=Percy Sledge - When A Man Loves A Woman
TTITLE1=Billy Ocean - Suddenly
TTITLE2=Ninety-Eight Degrees - I Do (Cherish You)
TTITLE3=Boyz II Men - On Bended Knee
TTITLE4=Klymaxx - I'd Still Say Yes
TTITLE5=Kool And The Gang - Cherish
TTITLE6=Heatwave - Always And Forever
TTITLE7=Surface - Shower Me With Your Love
TTITLE8=Larry Graham - One In A Million You
TTITLE9=Chaka Khan - Through The Fire
TTITLE10=DeBarge - All This Love
TTITLE11=Peaches And Herb - I Pledge My Love
EXTD=Time Life Music - Body and Soul Collection ID3G:  14 YEAR: 2003
EXTT0=
EXTT1=
EXTT2=
EXTT3=
EXTT4=
EXTT5=
EXTT6=
EXTT7=
EXTT8=
EXTT9=
EXTT10=
EXTT11=
PLAYORDER=
